<svg viewBox="0 0 12 20" fill="none" xmlns="http://www.w3.org/2000/svg"><path d="M5 0a1 1 0 00-1 1v1H2.75C1.24 2 0 3.24 0 4.75v12.5C0 18.76 1.24 20 2.75 20h6.5c1.51 0 2.75-1.24 2.75-2.75V4.75C12 3.24 10.76 2 9.25 2H8V1a1 1 0 00-1-1H5zM2.75 3.5h6.5c.7 0 1.25.551 1.25 1.25v12.5c0 .7-.55 1.25-1.25 1.25h-6.5c-.7 0-1.25-.55-1.25-1.25V4.75c0-.699.55-1.25 1.25-1.25zm3.893 3a.357.357 0 00-.275.129l-3.285 4.785a.358.358 0 00.274.586H6l-.99 3.055a.357.357 0 00.622.316l3.285-4.785A.357.357 0 008.643 10H6l.99-3.055a.357.357 0 00-.347-.445z" fill="#40B659"/></svg>