<svg viewBox="0 0 20 19" fill="none" xmlns="http://www.w3.org/2000/svg"><path d="M3.25.5a.75.75 0 00-.75.75v.342A3.263 3.263 0 000 4.75v10.5a3.262 3.262 0 003.25 3.25h13.5A3.261 3.261 0 0020 15.25V4.75a3.262 3.262 0 00-3.25-3.25H7.5v-.25A.75.75 0 006.75.5h-3.5zm0 2.5h13.5c.975 0 1.75.775 1.75 1.75v10.5A1.74 1.74 0 0116.75 17H3.25a1.74 1.74 0 01-1.75-1.75V4.75C1.5 3.775 2.275 3 3.25 3zm1 2.5a.75.75 0 100 1.5h1.5a.75.75 0 100-1.5h-1.5zm7.75 0A4.511 4.511 0 007.5 10c0 2.477 2.024 4.5 4.5 4.5s4.5-2.023 4.5-4.5c0-2.476-2.024-4.5-4.5-4.5zM12 7c1.666 0 3 1.335 3 3 0 1.666-1.334 3-3 3s-3-1.334-3-3c0-1.665 1.334-3 3-3z" fill="#40B659"/></svg>