<svg viewBox="0 0 20 20" fill="none" xmlns="http://www.w3.org/2000/svg"><path d="M4.74.49a.75.75 0 00-.74.76v1.404A2.24 2.24 0 002.655 4H1.251a.75.75 0 100 1.5H2.5v2H1.25a.75.75 0 100 1.5H2.5v2H1.25a.751.751 0 100 1.5H2.5v2H1.25a.751.751 0 100 1.5h1.403A2.24 2.24 0 004 17.347v1.403a.75.75 0 101.5 0V17.5h2v1.25a.75.75 0 101.5 0V17.5h2v1.25a.751.751 0 101.5 0V17.5h2v1.25a.751.751 0 101.5 0v-1.403A2.24 2.24 0 0017.348 16h1.403a.75.75 0 100-1.5H17.5v-2h1.25a.75.75 0 100-1.5H17.5V9h1.25a.75.75 0 100-1.5H17.5v-2h1.25a.75.75 0 100-1.5h-1.403A2.24 2.24 0 0016 2.654V1.25a.75.75 0 10-1.5 0V2.5h-2V1.25a.75.75 0 10-1.5 0V2.5H9V1.25a.75.75 0 10-1.5 0V2.5h-2V1.25a.75.75 0 00-.762-.76zM4.87 4h3.257a.75.75 0 00.243 0h3.257a.75.75 0 00.243 0h3.257a.75.75 0 00.147.01.73.73 0 01.716.717.75.75 0 00.01.143v3.257a.752.752 0 000 .243v3.257a.751.751 0 000 .243v3.257a.743.743 0 00-.01.148.729.729 0 01-.717.715.758.758 0 00-.143.01h-3.257a.752.752 0 00-.243 0H8.374a.752.752 0 00-.243 0H4.874a.75.75 0 00-.147-.01.729.729 0 01-.716-.716.751.751 0 00-.01-.144v-3.257a.75.75 0 000-.243V8.373a.75.75 0 000-.243V4.873a.75.75 0 00.01-.147.729.729 0 01.716-.716.75.75 0 00.144-.01zm.88 1a.75.75 0 100 1.5.75.75 0 000-1.5zm8.5 8.5a.75.75 0 100 1.5.75.75 0 000-1.5z" fill="#40B659"/></svg>