<svg viewBox="0 0 20 21" fill="none" xmlns="http://www.w3.org/2000/svg"><path d="M10 0C4.485 0 0 4.485 0 10a9.98 9.98 0 004.324 8.225.75.75 0 00.852-1.236A8.464 8.464 0 011.5 10c0-4.705 3.795-8.5 8.5-8.5s8.5 3.795 8.5 8.5a8.463 8.463 0 01-3.676 6.99.75.75 0 10.852 1.235A9.979 9.979 0 0020 10c0-5.515-4.485-10-10-10zm0 3.5c-3.58 0-6.5 2.92-6.5 6.5a6.48 6.48 0 002.826 5.349.749.749 0 10.848-1.237A4.964 4.964 0 015 10c0-2.77 2.23-5 5-5s5 2.23 5 5c0 1.716-.86 3.211-2.174 4.112a.749.749 0 00.277 1.375.749.749 0 00.57-.138A6.48 6.48 0 0016.5 10c0-3.58-2.92-6.5-6.5-6.5zM10 7c-.938 0-1.736.379-2.248.955C7.239 8.532 7 9.271 7 10c0 .73.24 1.468.752 2.045.363.408.901.656 1.498.802v6.403a.75.75 0 101.5 0v-6.403c.597-.146 1.135-.394 1.498-.802.513-.577.752-1.316.752-2.045 0-.73-.24-1.468-.752-2.045C11.736 7.38 10.938 7 10 7zm0 1.5c.563 0 .89.184 1.127.451s.373.653.373 1.049c0 .396-.136.782-.373 1.049-.23.258-.552.43-1.08.442a.772.772 0 00-.094 0c-.528-.012-.85-.184-1.08-.442-.237-.267-.373-.653-.373-1.049 0-.396.136-.782.373-1.049.238-.267.565-.451 1.127-.451z" fill="#40B659"/></svg>