<svg width="18" height="18" fill="none" xmlns="http://www.w3.org/2000/svg"><path d="M8.275 1.556c.231-.496.347-.744.506-.822a.5.5 0 01.438 0c.16.078.275.326.506.822l1.927 4.134c.068.147.102.22.154.277a.5.5 0 00.163.118c.07.032.15.042.31.061l4.527.555c.544.067.815.1.938.227a.5.5 0 01.136.417c-.025.176-.225.362-.625.735l-3.337 3.11c-.118.11-.177.166-.215.232a.499.499 0 00-.063.192c-.008.076.007.155.038.314l.872 4.477c.104.537.157.806.073.962a.5.5 0 01-.354.258c-.175.03-.414-.102-.893-.367l-3.988-2.213c-.142-.078-.212-.118-.287-.133a.501.501 0 00-.202 0c-.075.015-.145.055-.287.133l-3.989 2.213c-.478.265-.717.398-.892.367a.5.5 0 01-.355-.258c-.083-.156-.03-.425.074-.962l.872-4.477c.03-.159.046-.238.038-.314a.5.5 0 00-.063-.192c-.037-.066-.097-.122-.215-.232L.745 8.08c-.4-.373-.6-.56-.625-.735a.5.5 0 01.136-.417c.123-.127.394-.16.937-.227l4.528-.555c.16-.02.24-.03.31-.06a.5.5 0 00.163-.119c.052-.057.086-.13.154-.277l1.927-4.134z" fill="#E4E4E4"/></svg>