<svg viewBox="0 0 20 16" fill="none" xmlns="http://www.w3.org/2000/svg"><path d="M3.25.5A3.262 3.262 0 000 3.75v8.5a3.262 3.262 0 003.25 3.25h8.5A3.261 3.261 0 0015 12.25v-.674l3.864 2.318A.751.751 0 0020 13.251V2.75a.75.75 0 00-1.136-.644L15 4.425v-.674A3.262 3.262 0 0011.75.5h-8.5zm0 1.5h8.5c.975 0 1.75.776 1.75 1.75v8.501A1.74 1.74 0 0111.75 14h-8.5a1.74 1.74 0 01-1.75-1.75v-8.5C1.5 2.776 2.275 2 3.25 2zM18.5 4.077v7.85l-3.5-2.1v-3.65l3.5-2.1zM7.5 5.5A2.503 2.503 0 005 8c0 1.378 1.122 2.5 2.5 2.5C8.879 10.5 10 9.379 10 8S8.879 5.5 7.5 5.5z" fill="#40B659"/></svg>