<svg viewBox="0 0 16 20" fill="none" xmlns="http://www.w3.org/2000/svg"><path d="M4.871 0c-.596 0-1.17.238-1.59.66L.658 3.28A2.256 2.256 0 000 4.871v2.38A.75.75 0 00.75 8h.75v1H.75a.75.75 0 00-.75.75v7.5C0 18.76 1.24 20 2.75 20h10.5c1.51 0 2.75-1.24 2.75-2.75V2.75C16 1.24 14.76 0 13.25 0H4.871zm0 1.5h8.379c.7 0 1.25.552 1.25 1.25v14.5c0 .7-.55 1.25-1.25 1.25H2.75c-.7 0-1.25-.55-1.25-1.25V10.5h.75A.75.75 0 003 9.75v-2.5a.75.75 0 00-.75-.75H1.5V4.873c0-.2.08-.39.22-.53L4.342 1.72a.75.75 0 01.53-.22zm.367.99a.75.75 0 00-.738.76v2.5a.75.75 0 101.5 0v-2.5a.75.75 0 00-.762-.76zm2.5 0A.75.75 0 007 3.25v2.5a.75.75 0 101.5 0v-2.5a.75.75 0 00-.762-.76zm2.5 0a.75.75 0 00-.738.76v2.5a.75.75 0 101.5 0v-2.5a.75.75 0 00-.762-.76zm2.5 0a.75.75 0 00-.738.76v2.5a.751.751 0 101.5 0v-2.5a.75.75 0 00-.762-.76z" fill="#40B659"/></svg>